<svg xmlns="http://www.w3.org/2000/svg" version="1.1" xmlns:xlink="http://www.w3.org/1999/xlink" xmlns:svgjs="http://svgjs.dev/svgjs" width="1500" height="1500" viewBox="0 0 1500 1500"><rect width="1500" height="1500" fill="#000000"></rect><g transform="matrix(0.6666666666666666,0,0,0.6666666666666666,249.39393939393938,438.5856950067477)"><svg viewBox="0 0 396 247" data-background-color="#282634" preserveAspectRatio="xMidYMid meet" height="935" width="1500" xmlns="http://www.w3.org/2000/svg" xmlns:xlink="http://www.w3.org/1999/xlink"><g id="tight-bounds" transform="matrix(1,0,0,1,0.2400000000000091,-0.09999999999999432)"><svg viewBox="0 0 395.52 247.2" height="247.2" width="395.52"><g><svg></svg></g><g><svg viewBox="0 0 395.52 247.2" height="247.2" width="395.52"><g><path d="M55.039 247.2l26.403-45.732 7.584 0-22.403 38.804h262.274l-22.403-38.804 7.584 0 26.403 45.732zM197.76 0l26.403 45.732-7.583 0-18.82-32.596-18.82 32.596-7.583 0z" fill="#ffffff" fill-rule="nonzero" stroke="none" stroke-width="1" stroke-linecap="butt" stroke-linejoin="miter" stroke-miterlimit="10" stroke-dasharray="" stroke-dashoffset="0" font-family="none" font-weight="none" font-size="none" text-anchor="none" style="mix-blend-mode: normal" data-fill-palette-color="tertiary"></path></g><g transform="matrix(1,0,0,1,77.55038432554633,67.97999999999999)"><svg viewBox="0 0 240.41923134890732 111.24" height="111.24" width="240.41923134890732"><g><svg viewBox="0 0 240.41923134890732 111.24" height="111.24" width="240.41923134890732"><g><svg viewBox="0 0 240.41923134890732 111.24" height="111.24" width="240.41923134890732"><g><svg viewBox="0 0 240.41923134890732 111.24" height="111.24" width="240.41923134890732"><g id="textblocktransform"><svg viewBox="0 0 240.41923134890732 111.24" height="111.24" width="240.41923134890732" id="textblock"><g><svg viewBox="0 0 240.41923134890732 111.24" height="111.24" width="240.41923134890732"><g transform="matrix(1,0,0,1,0,0)"><svg width="240.41923134890732" viewBox="2.1 -32.4 70.02000000000001 32.4" height="111.24" data-palette-color="#ff4057"><path d="M12.92-25.83L12.92-6.59 16.97-6.59 16.97 0 8.67 0 2.1-6.47 2.1-25.93 8.67-32.4 16.97-32.4 16.97-25.83 12.92-25.83ZM22.8-6.59L22.8-25.83 18.68-25.83 18.68-32.4 27.05-32.4 33.59-25.93 33.59-6.47 27.05 0 18.68 0 18.68-6.59 22.8-6.59ZM61.2 0L59.84-3.54 49.24-3.54 51.49-9.96 57.35-9.96 48.68-32.4 59.2-32.4 72.12 0 61.2 0ZM52.29-18.07L46.36 0 35.94 0 47.51-30.93 52.29-18.07Z" opacity="1" transform="matrix(1,0,0,1,0,0)" fill="#ffffff" class="wordmark-text-0" data-fill-palette-color="primary" id="text-0"></path></svg></g></svg></g></svg></g></svg></g><g></g></svg></g></svg></g></svg></g></svg></g><defs></defs></svg><rect width="395.52" height="247.2" fill="none" stroke="none" visibility="hidden"></rect></g></svg></g></svg>